<?xml version="1.0" encoding="UTF-8"?>
<svg id="Layer_1" data-name="Layer 1" xmlns="http://www.w3.org/2000/svg" viewBox="0 0 244.29 158.3">
  <path d="M6.49,5.18C2.93,2.54,0,.3,0,.2s6.84-.2,15.19-.2h15.19l7.38,5.52c4.1,3.03,13.04,9.62,19.88,14.61,6.84,5.03,14.95,10.95,17.98,13.19,2.99,2.2,7.87,5.81,10.85,7.96,2.93,2.15,5.37,4.06,5.37,4.2,0,.19-3.27,2.78-7.33,5.81-4.69,3.52-7.52,5.33-7.92,5.08-.34-.2-3.76-2.64-7.57-5.42-3.81-2.79-7.23-5.18-7.67-5.33-.78-.3-12.02,4.83-12.02,5.52,0,.25,3.86,3.28,8.54,6.75,4.69,3.52,8.5,6.45,8.55,6.59,0,.15-1.32,1.27-2.93,2.44-1.66,1.22-4.84,3.61-7.18,5.33-3.82,2.83-4.25,3.08-5.23,2.49-.54-.34-6.49-4.74-13.24-9.73-6.7-4.98-14.56-10.85-17.45-13-2.93-2.1-5.28-4.01-5.23-4.15,0-.25,3.86-2.11,22.57-10.99,3.66-1.76,6.69-3.37,6.69-3.56,0-.34-10.45-8.16-18.95-14.17-1.27-.93-4.59-3.37-7.43-5.42-2.83-2.1-8.06-5.96-11.58-8.55Z" style="fill: #7b6c5c; fill-rule: evenodd; stroke-width: 0px;"/>
  <path d="M83.06,15.05c6.84-3.32,12.75-6.11,13.09-6.11.34-.05,3.56,2.1,7.08,4.69,3.57,2.63,7.58,5.61,8.9,6.59,1.37,1.03,2.68,2.05,2.93,2.25.3.2,1.32.98,2.35,1.71l1.86,1.42-7.13,5.33c-3.91,2.93-7.38,5.33-7.62,5.33s-2.49-1.56-5.04-3.42c-2.49-1.91-4.78-3.42-5.08-3.42-.34,0-2.2.78-4.2,1.81l-3.61,1.75-7.23-5.33c-3.96-2.93-7.58-5.57-7.97-5.91-.63-.44,1.37-1.61,11.68-6.69Z" style="fill: #7b6c5c; fill-rule: evenodd; stroke-width: 0px;"/>
  <path d="M107.49.2c0-.1,6.54-.2,14.56-.2h14.51l4.11,2.93c2.3,1.61,4.2,3.03,4.3,3.13.15.1-2.83,2.44-6.54,5.18-3.71,2.79-7.04,5.23-7.33,5.47-.44.34-2.1-.54-5.61-3.08C118.72,8.84,107.49.44,107.49.2Z" style="fill: #7b6c5c; fill-rule: evenodd; stroke-width: 0px;"/>
  <path d="M141.68,15.54c4.16-3.08,7.72-5.62,7.92-5.67.2,0,3.71,2.44,7.82,5.47,4.11,2.98,8.84,6.45,10.55,7.62,1.66,1.23,3.03,2.35,3.03,2.49-.05.25-4.05,3.18-11.58,8.45-1.42,1.03-2.83,1.86-3.13,1.86s-1.75-.88-3.32-1.96c-1.51-1.07-3.03-1.95-3.28-1.95-.93,0-11.04,7.91-10.65,8.26.25.2,1.61,1.18,3.03,2.2,1.37,1.03,2.54,2.01,2.54,2.2,0,.3-8.75,6.89-13.88,10.51-.59.39-1.61-.2-6.16-3.52-.73-.54-1.61-.1-6.79,3.81-3.23,2.39-5.92,4.49-5.92,4.54,0,.1,1.32,1.23,2.93,2.49l2.94,2.35-3.28,2.35c-1.86,1.32-5.13,3.71-7.33,5.37-2.2,1.61-4.25,2.93-4.54,2.93s-1.71-.88-3.18-1.95c-1.47-1.08-2.83-1.96-3.08-1.96-.68,0-9.62,6.89-9.77,7.52-.05.3.49.93,1.23,1.42.73.44,2,1.32,2.73,1.95l1.42,1.18-7.42,5.42-7.43,5.37-2.93-2.15-2.93-2.15-2.54,1.81c-8.84,6.4-19.34,14.36-19.34,14.71,0,.24,1.32,1.02,2.93,1.8s2.93,1.56,2.93,1.76c0,.25-.49.73-1.08,1.17-.63.44-3.42,2.49-6.25,4.55-2.84,2.1-5.82,4.3-6.65,4.88l-1.56,1.08-9.18-4.44c-5.08-2.44-10.6-5.08-12.26-5.87-1.71-.78-3.08-1.51-3.08-1.66,0-.1,4.01-3.18,8.94-6.84,4.89-3.66,15.05-11.19,22.57-16.81,7.52-5.57,17.98-13.34,23.21-17.24,5.23-3.86,15.73-11.68,23.26-17.3,7.57-5.62,19.88-14.76,27.36-20.32,7.52-5.52,17.05-12.61,21.2-15.74Z" style="fill: #7b6c5c; fill-rule: evenodd; stroke-width: 0px;"/>
  <path d="M160.98,39.33c5.13-3.71,10.41-7.62,11.73-8.65,1.37-1.03,2.78-1.81,3.18-1.71.39.1,4.93,3.23,10.02,6.94,5.13,3.71,10.02,7.28,10.9,7.97l1.56,1.17-7.38,5.57-7.38,5.52-3.52-2.69c-1.95-1.42-3.81-2.63-4.15-2.63-.93,0-11.38,7.92-10.95,8.3.2.15,1.91,1.47,3.71,2.88,1.81,1.47,3.28,2.69,3.18,2.74-1.66,1.61-14.46,10.45-14.85,10.31-.34-.15-2.15-1.37-4.05-2.73l-3.42-2.49-5.86,4.3c-3.23,2.35-5.92,4.45-5.92,4.64,0,.15,1.56,1.42,3.42,2.84,1.91,1.42,3.42,2.68,3.42,2.93,0,.49-13.19,10.31-14.22,10.6-.49.15-2.3-.83-4.25-2.25-1.86-1.37-3.67-2.49-3.96-2.49-.34,0-2.79,1.66-5.52,3.76-4.79,3.62-4.94,3.77-3.96,4.5.58.44,2.25,1.75,3.81,2.93,1.51,1.17,2.69,2.15,2.59,2.25-.63.58-13.88,10.16-14.32,10.31-.29.15-2.15-.97-4.15-2.49-2.01-1.51-3.91-2.59-4.3-2.44-.58.2-8.5,5.96-16.81,12.21-1.8,1.32-6.25,4.64-9.92,7.33-3.71,2.69-10.26,7.53-14.61,10.7-4.3,3.23-9.82,7.28-12.26,9.09-2.39,1.75-6.25,4.59-8.5,6.25l-4.1,3.03h-15.1c-8.74,0-15-.2-14.85-.44.24-.39,15.24-11.58,19.93-14.85,1.02-.73,3.76-2.68,6.01-4.4,5.37-3.96,13.63-10.02,32.49-23.79,18.46-13.48,25.01-18.32,35.66-26.14,8.85-6.54,51.89-38.06,66.69-48.85Z" style="fill: #7b6c5c; fill-rule: evenodd; stroke-width: 0px;"/>
  <path d="M161.48,79.15c22.77-16.81,37.81-27.99,39.33-29.22.93-.78,1.81-1.42,1.96-1.42s1.9,1.18,3.91,2.69c2,1.47,6.99,5.13,11.09,8.11l7.43,5.42-2.06,1.56c-1.12.83-4.49,3.32-7.47,5.47l-5.42,3.96-3.52-2.64c-1.96-1.47-3.81-2.49-4.11-2.3-2.3,1.32-10.6,7.72-10.6,8.16.05.3,1.47,1.52,3.18,2.74,1.75,1.22,3.18,2.3,3.18,2.44,0,.29-13.93,10.4-14.61,10.65-.3.1-1.91-.98-3.62-2.3-1.75-1.37-3.32-2.49-3.47-2.49-.68,0-11.53,8.45-11.53,8.99,0,.3,1.32,1.51,2.93,2.64,1.61,1.17,2.93,2.3,2.93,2.44-.05.2-3.32,2.73-7.38,5.61l-7.33,5.28-3.37-2.49-3.42-2.54-5.13,3.76c-2.83,2.06-5.23,3.91-5.37,4.16-.15.25,1.17,1.47,2.93,2.73,1.76,1.27,3.18,2.39,3.18,2.44s-1.18.93-2.54,1.96c-1.42,1.07-2.78,2.05-3.08,2.3-.24.19-2.44,1.8-4.83,3.52l-4.35,3.18-2-1.61c-1.13-.93-2.59-2.05-3.32-2.49l-1.32-.83-13.14,9.73c-7.23,5.37-13.39,9.87-13.68,10.07-.3.14-6.69-2.79-14.27-6.5l-13.73-6.84,3.57-2.59c1.95-1.42,5.52-4.05,7.96-5.81l4.35-3.28,4.98,2.49,4.94,2.44,2.88-2.15c1.56-1.17,3.13-2.3,3.37-2.49.29-.25,4.98-3.76,10.5-7.82,5.52-4.06,13.33-9.87,17.34-12.85,12.51-9.28,24.58-18.23,32.74-24.29Z" style="fill: #7b6c5c; fill-rule: evenodd; stroke-width: 0px;"/>
  <path d="M223.67,72.31c3.13-2.35,5.81-4.3,5.91-4.3s3.42,2.35,7.42,5.23c4.01,2.93,7.28,5.42,7.28,5.62,0,.29-4.49,3.76-8.16,6.25-.54.39-7.81,5.72-16.12,11.78-8.26,6.06-26.14,19.1-39.72,29.02-13.58,9.87-28.14,20.52-32.39,23.65-4.25,3.13-8.59,6.25-9.62,7.03l-1.91,1.23-14.71.49h-14.7l4.69-4.06c2.59-1.9,6.59-4.83,8.94-6.54,2.35-1.71,7.42-5.42,11.33-8.26,3.91-2.84,9.72-7.09,12.95-9.48,3.23-2.35,13.14-9.57,21.99-16.07,8.89-6.45,18.71-13.68,21.93-15.98,3.18-2.35,8.6-6.35,12.07-8.9,3.47-2.54,8.75-6.4,11.68-8.54,2.98-2.15,7.97-5.82,11.14-8.16Z" style="fill: #7b6c5c; fill-rule: evenodd; stroke-width: 0px;"/>
</svg>