<?xml version="1.0" encoding="UTF-8"?>
<svg id="Layer_1" data-name="Layer 1" xmlns="http://www.w3.org/2000/svg" viewBox="0 0 197.73 197.73">
  <polygon points="157.62 197.73 197.73 157.39 40.34 0 0 40.11 157.62 197.73" style="fill: #7b6c5c; stroke-width: 0px;"/>
  <polygon points="40.11 197.73 0 157.39 157.39 0 197.73 40.11 40.11 197.73" style="fill: #7b6c5c; stroke-width: 0px;"/>
  <polygon points="40.11 197.73 0 197.73 0 157.39 48.11 150.58 40.11 197.73" style="fill: #7b6c5c; stroke-width: 0px;"/>
  <polygon points="157.62 197.73 197.73 197.73 197.73 157.39 165.35 168.95 157.62 197.73" style="fill: #7b6c5c; stroke-width: 0px;"/>
  <polygon points="157.62 0 197.73 0 197.73 40.34 146.42 12.44 157.62 0" style="fill: #7b6c5c; stroke-width: 0px;"/>
  <polygon points="40.11 0 0 0 0 40.34 55.43 15.08 40.11 0" style="fill: #7b6c5c; stroke-width: 0px;"/>
  <rect width="197.73" height="197.73" style="fill: none; stroke-width: 0px;"/>
</svg>