<?xml version="1.0" encoding="UTF-8"?>
<svg id="Layer_1" data-name="Layer 1" xmlns="http://www.w3.org/2000/svg" viewBox="0 0 200.72 200.72">
  <path d="M106.63,166.97c-.61.05-1.23.16-1.84.33-4.75,1.36-7.56,6.19-6.46,10.95.04.15.08.31.12.46,1.4,4.9,6.51,7.74,11.41,6.34,1.22-.35,2.3-.92,3.23-1.67,2.81-2.25,4.16-6.06,3.1-9.74-1.22-4.29-5.29-6.99-9.56-6.67Z" style="fill: #ded0c1; stroke-width: 0px;"/>
  <path d="M0,0v125.99c8.61-5.56,18.87-8.78,29.88-8.78,16.91,0,32.05,7.61,42.17,19.59,8.49-4.34,18.11-6.8,28.3-6.8,8.91,0,17.38,1.88,25.04,5.25,1.1.49,2.19,1.01,3.25,1.56,10.13-11.98,25.26-19.59,42.18-19.59,11.01,0,21.27,3.23,29.88,8.78V0H0ZM27.7,95.69c-4.92,0-8.9-3.99-8.9-8.9s3.99-8.9,8.9-8.9,8.9,3.99,8.9,8.9-3.99,8.9-8.9,8.9ZM73.21,124.1c-4.92,0-8.9-3.99-8.9-8.9s3.99-8.9,8.9-8.9,8.9,3.99,8.9,8.9-3.99,8.9-8.9,8.9ZM118.6,106.29c-4.92,0-8.9-3.99-8.9-8.9s3.99-8.9,8.9-8.9,8.9,3.99,8.9,8.9-3.99,8.9-8.9,8.9ZM184.72,100.36c-4.92,0-8.9-3.99-8.9-8.9s3.99-8.9,8.9-8.9,8.9,3.99,8.9,8.9-3.99,8.9-8.9,8.9Z" style="fill: none; stroke-width: 0px;"/>
  <circle cx="118.6" cy="97.38" r="8.9" style="fill: #5f7a79; stroke-width: 0px;"/>
  <circle cx="27.7" cy="86.79" r="8.9" style="fill: #5f7a79; stroke-width: 0px;"/>
  <circle cx="184.72" cy="91.45" r="8.9" transform="translate(29.54 227.11) rotate(-67.5)" style="fill: #7b6c5c; stroke-width: 0px;"/>
  <path d="M128.65,136.8c20.15,10.3,33.95,31.26,33.95,55.44,0,2.87-.2,5.7-.57,8.47h38.69v-74.73c-8.61-5.56-18.87-8.78-29.88-8.78-16.92,0-32.05,7.61-42.18,19.59ZM184.16,153.24c1.66,5.8-.46,11.78-4.89,15.33-1.46,1.17-3.17,2.08-5.09,2.62-7.71,2.2-15.75-2.26-17.96-9.98-.07-.24-.13-.48-.19-.72-1.73-7.49,2.69-15.1,10.16-17.23.97-.28,1.94-.45,2.9-.52,6.74-.51,13.13,3.75,15.06,10.5Z" style="fill: #5f7a79; stroke-width: 0px;"/>
  <path d="M129.83,136.8c-1.1-.55-2.21-1.07-3.34-1.56-7.87-3.37-16.56-5.25-25.71-5.25-10.46,0-20.34,2.45-29.05,6.8.4.46.8.93,1.18,1.4-3.21,1.38-6.24,3.07-9.06,5.03,6.06,3.18,10.18,9.42,10.18,16.6,0,10.41-8.66,18.85-19.35,18.85-4.3,0-8.27-1.37-11.48-3.68-.51,2.83-.79,5.74-.79,8.72,0,5.97,1.08,11.7,3.06,17h118.61c.39-2.77.59-5.6.59-8.47,0-24.18-14.17-45.14-34.85-55.44ZM113.03,183.12c-.92.72-2,1.27-3.2,1.61-4.85,1.35-9.91-1.39-11.3-6.11-.04-.15-.08-.3-.12-.44-1.09-4.59,1.69-9.25,6.39-10.56.61-.17,1.22-.27,1.83-.32,4.24-.31,8.26,2.3,9.47,6.43,1.04,3.55-.29,7.22-3.08,9.4Z" style="fill: #5f7a79; stroke-width: 0px;"/>
  <path d="M44.27,175c-4.65-3.43-7.66-8.95-7.66-15.17,0-10.41,8.44-18.85,18.85-18.85,3.23,0,6.27.81,8.93,2.25,2.75-1.96,5.7-3.65,8.83-5.03-.38-.48-.76-.94-1.15-1.4-10.13-11.98-25.26-19.59-42.17-19.59-11.01,0-21.27,3.23-29.88,8.78v74.73h46.48c-1.93-5.3-2.98-11.03-2.98-17,0-2.98.27-5.89.77-8.72Z" style="fill: #5f7a79; stroke-width: 0px;"/>
  <path d="M55.31,139.95c-10.85,0-19.64,8.79-19.64,19.64,0,6.48,3.14,12.23,7.99,15.81,3.26,2.41,7.29,3.83,11.66,3.83,10.85,0,19.64-8.79,19.64-19.64,0-7.48-4.18-13.98-10.34-17.3-2.77-1.49-5.94-2.34-9.3-2.34Z" style="fill: #7b6c5c; stroke-width: 0px;"/>
  <path d="M169.1,142.74c-.96.07-1.94.24-2.9.52-7.47,2.14-11.9,9.75-10.16,17.23.06.24.12.48.19.72,2.2,7.71,10.24,12.18,17.96,9.98,1.91-.55,3.63-1.45,5.09-2.62,4.43-3.55,6.55-9.53,4.89-15.33-1.93-6.75-8.32-11.01-15.06-10.5Z" style="fill: #ded0c1; stroke-width: 0px;"/>
  <circle cx="73.21" cy="115.19" r="8.9" transform="translate(-61.23 138.75) rotate(-67.5)" style="fill: #7b6c5c; stroke-width: 0px;"/>
</svg>